<svg width="353" height="666" viewBox="0 0 353 666" fill="none" xmlns="http://www.w3.org/2000/svg">
<rect width="353" height="666" fill="black"/>
<path d="M50.12 241H48.3729L52.2987 230.091H54.2003L58.1261 241H56.3789L53.2947 232.072H53.2095L50.12 241ZM50.413 236.728H56.0806V238.113H50.413V236.728ZM61.1663 236.142V241H59.5736V232.818H61.1024V234.15H61.2036C61.3918 233.717 61.6865 233.369 62.0878 233.106C62.4926 232.843 63.0022 232.712 63.6166 232.712C64.1741 232.712 64.6624 232.829 65.0814 233.063C65.5004 233.294 65.8254 233.638 66.0562 234.097C66.287 234.555 66.4024 235.121 66.4024 235.796V241H64.8097V235.988C64.8097 235.395 64.6553 234.931 64.3463 234.597C64.0374 234.26 63.613 234.091 63.0732 234.091C62.7039 234.091 62.3754 234.171 62.0878 234.331C61.8037 234.491 61.5782 234.725 61.4113 235.034C61.248 235.339 61.1663 235.709 61.1663 236.142ZM69.2522 244.068C69.0143 244.068 68.7977 244.049 68.6024 244.01C68.407 243.974 68.2615 243.935 68.1656 243.892L68.5491 242.587C68.8403 242.665 69.0995 242.699 69.3268 242.689C69.5541 242.678 69.7547 242.593 69.9287 242.433C70.1063 242.273 70.2625 242.012 70.3975 241.65L70.5945 241.107L67.6009 232.818H69.3055L71.3776 239.168H71.4628L73.5349 232.818H75.2448L71.873 242.092C71.7167 242.518 71.5178 242.879 71.2764 243.173C71.0349 243.472 70.7472 243.695 70.4134 243.844C70.0796 243.994 69.6926 244.068 69.2522 244.068ZM83.317 244.068V232.818H84.8724V234.145H85.0055C85.0979 233.974 85.231 233.777 85.405 233.553C85.579 233.33 85.8205 233.134 86.1295 232.967C86.4384 232.797 86.8468 232.712 87.3546 232.712C88.0151 232.712 88.6046 232.879 89.1231 233.212C89.6415 233.546 90.0481 234.027 90.3429 234.656C90.6412 235.284 90.7903 236.041 90.7903 236.925C90.7903 237.809 90.643 238.567 90.3482 239.2C90.0535 239.828 89.6486 240.313 89.1337 240.654C88.6188 240.991 88.0311 241.16 87.3706 241.16C86.8734 241.16 86.4668 241.076 86.1508 240.909C85.8383 240.743 85.5932 240.547 85.4157 240.324C85.2381 240.1 85.1014 239.901 85.0055 239.727H84.9096V244.068H83.317ZM84.8777 236.909C84.8777 237.484 84.9611 237.989 85.128 238.422C85.2949 238.855 85.5364 239.194 85.8525 239.439C86.1685 239.681 86.5556 239.801 87.0137 239.801C87.4895 239.801 87.8873 239.675 88.2069 239.423C88.5265 239.168 88.768 238.821 88.9313 238.385C89.0982 237.948 89.1817 237.456 89.1817 236.909C89.1817 236.369 89.1 235.885 88.9366 235.455C88.7768 235.025 88.5354 234.686 88.2122 234.438C87.8926 234.189 87.4931 234.065 87.0137 234.065C86.552 234.065 86.1614 234.184 85.8418 234.422C85.5258 234.659 85.2861 234.991 85.1227 235.418C84.9594 235.844 84.8777 236.341 84.8777 236.909ZM92.5748 241V232.818H94.1142V234.118H94.1994C94.3486 233.678 94.6113 233.331 94.9878 233.079C95.3677 232.824 95.7974 232.696 96.2768 232.696C96.3763 232.696 96.4934 232.699 96.6284 232.706C96.7669 232.713 96.8752 232.722 96.9533 232.733V234.256C96.8894 234.239 96.7758 234.219 96.6124 234.198C96.4491 234.173 96.2857 234.161 96.1224 234.161C95.7459 234.161 95.4104 234.24 95.1156 234.4C94.8244 234.556 94.5936 234.775 94.4231 235.055C94.2527 235.332 94.1675 235.648 94.1675 236.004V241H92.5748ZM101.485 241.165C100.718 241.165 100.049 240.989 99.4768 240.638C98.9051 240.286 98.4612 239.794 98.1452 239.162C97.8291 238.53 97.6711 237.792 97.6711 236.946C97.6711 236.098 97.8291 235.355 98.1452 234.72C98.4612 234.084 98.9051 233.591 99.4768 233.239C100.049 232.887 100.718 232.712 101.485 232.712C102.252 232.712 102.921 232.887 103.493 233.239C104.065 233.591 104.509 234.084 104.825 234.72C105.141 235.355 105.299 236.098 105.299 236.946C105.299 237.792 105.141 238.53 104.825 239.162C104.509 239.794 104.065 240.286 103.493 240.638C102.921 240.989 102.252 241.165 101.485 241.165ZM101.49 239.828C101.987 239.828 102.399 239.697 102.726 239.434C103.053 239.171 103.294 238.821 103.451 238.385C103.61 237.948 103.69 237.467 103.69 236.941C103.69 236.419 103.61 235.94 103.451 235.503C103.294 235.062 103.053 234.709 102.726 234.443C102.399 234.176 101.987 234.043 101.49 234.043C100.99 234.043 100.574 234.176 100.244 234.443C99.9172 234.709 99.6739 235.062 99.5141 235.503C99.3579 235.94 99.2798 236.419 99.2798 236.941C99.2798 237.467 99.3579 237.948 99.5141 238.385C99.6739 238.821 99.9172 239.171 100.244 239.434C100.574 239.697 100.99 239.828 101.49 239.828ZM107.205 241V230.091H108.797V234.145H108.893C108.985 233.974 109.119 233.777 109.293 233.553C109.467 233.33 109.708 233.134 110.017 232.967C110.326 232.797 110.734 232.712 111.242 232.712C111.903 232.712 112.492 232.879 113.011 233.212C113.529 233.546 113.936 234.027 114.23 234.656C114.529 235.284 114.678 236.041 114.678 236.925C114.678 237.809 114.531 238.567 114.236 239.2C113.941 239.828 113.536 240.313 113.021 240.654C112.506 240.991 111.919 241.16 111.258 241.16C110.761 241.16 110.354 241.076 110.038 240.909C109.726 240.743 109.481 240.547 109.303 240.324C109.126 240.1 108.989 239.901 108.893 239.727H108.76V241H107.205ZM108.765 236.909C108.765 237.484 108.849 237.989 109.016 238.422C109.183 238.855 109.424 239.194 109.74 239.439C110.056 239.681 110.443 239.801 110.901 239.801C111.377 239.801 111.775 239.675 112.094 239.423C112.414 239.168 112.656 238.821 112.819 238.385C112.986 237.948 113.069 237.456 113.069 236.909C113.069 236.369 112.988 235.885 112.824 235.455C112.664 235.025 112.423 234.686 112.1 234.438C111.78 234.189 111.381 234.065 110.901 234.065C110.44 234.065 110.049 234.184 109.729 234.422C109.413 234.659 109.174 234.991 109.01 235.418C108.847 235.844 108.765 236.341 108.765 236.909ZM118.059 230.091V241H116.466V230.091H118.059ZM123.728 241.165C122.922 241.165 122.228 240.993 121.645 240.648C121.066 240.3 120.619 239.812 120.303 239.184C119.99 238.551 119.834 237.811 119.834 236.962C119.834 236.124 119.99 235.386 120.303 234.746C120.619 234.107 121.059 233.608 121.624 233.25C122.192 232.891 122.856 232.712 123.616 232.712C124.078 232.712 124.525 232.788 124.958 232.941C125.392 233.093 125.781 233.333 126.125 233.66C126.469 233.987 126.741 234.411 126.94 234.933C127.139 235.451 127.238 236.082 127.238 236.824V237.388H120.734V236.195H125.678C125.678 235.776 125.592 235.405 125.422 235.082C125.251 234.755 125.012 234.498 124.703 234.31C124.397 234.121 124.039 234.027 123.627 234.027C123.179 234.027 122.789 234.137 122.455 234.358C122.125 234.574 121.869 234.858 121.688 235.21C121.51 235.558 121.422 235.936 121.422 236.344V237.277C121.422 237.824 121.517 238.289 121.709 238.672C121.904 239.056 122.176 239.349 122.524 239.551C122.872 239.75 123.279 239.849 123.744 239.849C124.046 239.849 124.321 239.807 124.57 239.722C124.818 239.633 125.033 239.501 125.214 239.327C125.395 239.153 125.534 238.939 125.63 238.683L127.137 238.955C127.016 239.398 126.8 239.787 126.487 240.121C126.178 240.451 125.789 240.709 125.321 240.893C124.855 241.075 124.325 241.165 123.728 241.165ZM129.005 241V232.818H130.534V234.15H130.635C130.806 233.699 131.085 233.347 131.472 233.095C131.859 232.839 132.322 232.712 132.862 232.712C133.409 232.712 133.867 232.839 134.236 233.095C134.609 233.351 134.884 233.702 135.062 234.15H135.147C135.342 233.713 135.653 233.365 136.079 233.106C136.505 232.843 137.013 232.712 137.603 232.712C138.345 232.712 138.95 232.944 139.419 233.409C139.891 233.875 140.128 234.576 140.128 235.513V241H138.535V235.663C138.535 235.109 138.384 234.707 138.082 234.459C137.78 234.21 137.42 234.086 137.001 234.086C136.482 234.086 136.079 234.246 135.792 234.565C135.504 234.881 135.36 235.288 135.36 235.785V241H133.773V235.561C133.773 235.118 133.634 234.761 133.357 234.491C133.08 234.221 132.72 234.086 132.276 234.086C131.974 234.086 131.695 234.166 131.44 234.326C131.188 234.482 130.983 234.7 130.827 234.981C130.674 235.261 130.598 235.586 130.598 235.956V241H129.005ZM148.838 241V232.818H150.43V241H148.838ZM149.642 231.556C149.365 231.556 149.127 231.463 148.928 231.279C148.733 231.091 148.635 230.867 148.635 230.608C148.635 230.345 148.733 230.121 148.928 229.936C149.127 229.748 149.365 229.654 149.642 229.654C149.919 229.654 150.155 229.748 150.35 229.936C150.549 230.121 150.649 230.345 150.649 230.608C150.649 230.867 150.549 231.091 150.35 231.279C150.155 231.463 149.919 231.556 149.642 231.556ZM154.166 236.142V241H152.573V232.818H154.102V234.15H154.203C154.391 233.717 154.686 233.369 155.087 233.106C155.492 232.843 156.002 232.712 156.616 232.712C157.174 232.712 157.662 232.829 158.081 233.063C158.5 233.294 158.825 233.638 159.056 234.097C159.286 234.555 159.402 235.121 159.402 235.796V241H157.809V235.988C157.809 235.395 157.655 234.931 157.346 234.597C157.037 234.26 156.612 234.091 156.073 234.091C155.703 234.091 155.375 234.171 155.087 234.331C154.803 234.491 154.578 234.725 154.411 235.034C154.247 235.339 154.166 235.709 154.166 236.142ZM169.706 230.091V241H168.113V230.091H169.706ZM171.849 241V232.818H173.441V241H171.849ZM172.653 231.556C172.376 231.556 172.138 231.463 171.939 231.279C171.744 231.091 171.646 230.867 171.646 230.608C171.646 230.345 171.744 230.121 171.939 229.936C172.138 229.748 172.376 229.654 172.653 229.654C172.93 229.654 173.166 229.748 173.361 229.936C173.56 230.121 173.66 230.345 173.66 230.608C173.66 230.867 173.56 231.091 173.361 231.279C173.166 231.463 172.93 231.556 172.653 231.556ZM179.478 232.818V234.097H174.854V232.818H179.478ZM176.122 241V231.87C176.122 231.359 176.234 230.934 176.458 230.597C176.681 230.256 176.978 230.002 177.347 229.835C177.716 229.665 178.118 229.58 178.551 229.58C178.871 229.58 179.144 229.606 179.371 229.659C179.599 229.709 179.767 229.755 179.877 229.798L179.504 231.087C179.43 231.066 179.334 231.041 179.217 231.012C179.1 230.98 178.958 230.964 178.791 230.964C178.404 230.964 178.127 231.06 177.96 231.252C177.796 231.444 177.715 231.721 177.715 232.083V241H176.122ZM184.325 241.165C183.519 241.165 182.825 240.993 182.242 240.648C181.663 240.3 181.216 239.812 180.9 239.184C180.587 238.551 180.431 237.811 180.431 236.962C180.431 236.124 180.587 235.386 180.9 234.746C181.216 234.107 181.656 233.608 182.221 233.25C182.789 232.891 183.453 232.712 184.213 232.712C184.675 232.712 185.122 232.788 185.556 232.941C185.989 233.093 186.378 233.333 186.722 233.66C187.067 233.987 187.338 234.411 187.537 234.933C187.736 235.451 187.835 236.082 187.835 236.824V237.388H181.331V236.195H186.275C186.275 235.776 186.189 235.405 186.019 235.082C185.849 234.755 185.609 234.498 185.3 234.31C184.994 234.121 184.636 234.027 184.224 234.027C183.776 234.027 183.386 234.137 183.052 234.358C182.722 234.574 182.466 234.858 182.285 235.21C182.107 235.558 182.019 235.936 182.019 236.344V237.277C182.019 237.824 182.114 238.289 182.306 238.672C182.502 239.056 182.773 239.349 183.121 239.551C183.469 239.75 183.876 239.849 184.341 239.849C184.643 239.849 184.918 239.807 185.167 239.722C185.415 239.633 185.63 239.501 185.811 239.327C185.992 239.153 186.131 238.939 186.227 238.683L187.734 238.955C187.613 239.398 187.397 239.787 187.084 240.121C186.775 240.451 186.386 240.709 185.918 240.893C185.453 241.075 184.922 241.165 184.325 241.165ZM196.178 241V232.818H197.771V241H196.178ZM196.982 231.556C196.705 231.556 196.467 231.463 196.268 231.279C196.073 231.091 195.975 230.867 195.975 230.608C195.975 230.345 196.073 230.121 196.268 229.936C196.467 229.748 196.705 229.654 196.982 229.654C197.259 229.654 197.495 229.748 197.691 229.936C197.89 230.121 197.989 230.345 197.989 230.608C197.989 230.867 197.89 231.091 197.691 231.279C197.495 231.463 197.259 231.556 196.982 231.556ZM206.044 234.816L204.601 235.071C204.54 234.887 204.444 234.711 204.313 234.544C204.185 234.377 204.011 234.24 203.791 234.134C203.571 234.027 203.296 233.974 202.965 233.974C202.514 233.974 202.138 234.075 201.836 234.278C201.534 234.477 201.383 234.734 201.383 235.05C201.383 235.324 201.485 235.544 201.687 235.711C201.889 235.877 202.216 236.014 202.667 236.121L203.967 236.419C204.72 236.593 205.281 236.861 205.65 237.223C206.019 237.586 206.204 238.056 206.204 238.635C206.204 239.125 206.062 239.562 205.778 239.945C205.497 240.325 205.105 240.624 204.601 240.84C204.1 241.057 203.519 241.165 202.859 241.165C201.943 241.165 201.195 240.97 200.616 240.579C200.038 240.185 199.682 239.626 199.551 238.901L201.09 238.667C201.186 239.068 201.383 239.372 201.682 239.578C201.98 239.78 202.369 239.881 202.848 239.881C203.37 239.881 203.788 239.773 204.1 239.556C204.413 239.336 204.569 239.068 204.569 238.752C204.569 238.496 204.473 238.282 204.281 238.108C204.093 237.934 203.804 237.802 203.413 237.713L202.028 237.41C201.264 237.236 200.7 236.959 200.334 236.579C199.972 236.199 199.791 235.718 199.791 235.135C199.791 234.652 199.926 234.23 200.196 233.868C200.465 233.505 200.838 233.223 201.314 233.021C201.79 232.815 202.335 232.712 202.949 232.712C203.834 232.712 204.53 232.903 205.038 233.287C205.545 233.667 205.881 234.176 206.044 234.816ZM216.912 241.181C216.393 241.181 215.924 241.085 215.505 240.893C215.086 240.698 214.754 240.416 214.509 240.047C214.268 239.677 214.147 239.224 214.147 238.688C214.147 238.227 214.236 237.847 214.413 237.548C214.591 237.25 214.831 237.014 215.133 236.84C215.434 236.666 215.772 236.534 216.145 236.446C216.517 236.357 216.897 236.289 217.285 236.243C217.775 236.186 218.172 236.14 218.478 236.105C218.783 236.066 219.005 236.004 219.144 235.918C219.282 235.833 219.351 235.695 219.351 235.503V235.466C219.351 235 219.22 234.64 218.957 234.384C218.698 234.129 218.311 234.001 217.796 234.001C217.26 234.001 216.837 234.12 216.528 234.358C216.223 234.592 216.011 234.853 215.894 235.141L214.397 234.8C214.575 234.303 214.834 233.901 215.175 233.596C215.52 233.287 215.916 233.063 216.363 232.925C216.81 232.783 217.281 232.712 217.775 232.712C218.101 232.712 218.448 232.751 218.813 232.829C219.183 232.903 219.527 233.042 219.847 233.244C220.17 233.447 220.434 233.736 220.64 234.113C220.846 234.485 220.949 234.97 220.949 235.567V241H219.394V239.881H219.33C219.227 240.087 219.073 240.29 218.867 240.489C218.661 240.687 218.396 240.853 218.073 240.984C217.75 241.115 217.363 241.181 216.912 241.181ZM217.258 239.903C217.698 239.903 218.075 239.816 218.387 239.642C218.703 239.468 218.943 239.24 219.106 238.96C219.273 238.676 219.357 238.372 219.357 238.049V236.994C219.3 237.051 219.19 237.104 219.026 237.154C218.867 237.2 218.684 237.241 218.478 237.277C218.272 237.309 218.071 237.339 217.876 237.367C217.68 237.392 217.517 237.413 217.386 237.431C217.077 237.47 216.794 237.536 216.539 237.628C216.287 237.721 216.084 237.854 215.932 238.028C215.782 238.198 215.708 238.425 215.708 238.71C215.708 239.104 215.853 239.402 216.145 239.604C216.436 239.803 216.807 239.903 217.258 239.903ZM52.8899 250.818V252.097H48.4208V250.818H52.8899ZM49.6193 248.858H51.212V256.598C51.212 256.907 51.2582 257.139 51.3505 257.295C51.4428 257.448 51.5618 257.553 51.7074 257.61C51.8565 257.663 52.0181 257.69 52.1921 257.69C52.32 257.69 52.4318 257.681 52.5277 257.663C52.6236 257.645 52.6982 257.631 52.7514 257.62L53.0391 258.936C52.9467 258.972 52.8153 259.007 52.6449 259.043C52.4744 259.082 52.2614 259.103 52.0057 259.107C51.5866 259.114 51.196 259.039 50.8338 258.883C50.4716 258.727 50.1786 258.485 49.9549 258.158C49.7312 257.832 49.6193 257.422 49.6193 256.928V248.858ZM58.0901 259.165C57.284 259.165 56.5898 258.993 56.0074 258.648C55.4285 258.3 54.9811 257.812 54.665 257.184C54.3525 256.551 54.1963 255.811 54.1963 254.962C54.1963 254.124 54.3525 253.386 54.665 252.746C54.9811 252.107 55.4214 251.608 55.9861 251.25C56.5542 250.891 57.2183 250.712 57.9782 250.712C58.4399 250.712 58.8873 250.788 59.3206 250.941C59.7538 251.093 60.1427 251.333 60.4871 251.66C60.8316 251.987 61.1032 252.411 61.3021 252.933C61.501 253.451 61.6004 254.082 61.6004 254.824V255.388H55.0965V254.195H60.0397C60.0397 253.776 59.9545 253.405 59.784 253.082C59.6135 252.755 59.3738 252.498 59.0649 252.31C58.7595 252.121 58.4008 252.027 57.9889 252.027C57.5415 252.027 57.1508 252.137 56.817 252.358C56.4868 252.574 56.2311 252.858 56.05 253.21C55.8724 253.558 55.7836 253.936 55.7836 254.344V255.277C55.7836 255.824 55.8795 256.289 56.0713 256.672C56.2666 257.056 56.5383 257.349 56.8863 257.551C57.2343 257.75 57.6409 257.849 58.1061 257.849C58.4079 257.849 58.6832 257.807 58.9317 257.722C59.1803 257.633 59.3952 257.501 59.5763 257.327C59.7574 257.153 59.8959 256.939 59.9917 256.683L61.4992 256.955C61.3785 257.398 61.1618 257.787 60.8493 258.121C60.5404 258.451 60.1515 258.709 59.6828 258.893C59.2176 259.075 58.6867 259.165 58.0901 259.165ZM66.8139 259.165C66.022 259.165 65.3402 258.986 64.7685 258.627C64.2003 258.265 63.7635 257.766 63.4581 257.13C63.1527 256.495 63 255.767 63 254.946C63 254.115 63.1562 253.382 63.4688 252.746C63.7812 252.107 64.2216 251.608 64.7898 251.25C65.358 250.891 66.0273 250.712 66.7979 250.712C67.4194 250.712 67.9734 250.827 68.4599 251.058C68.9464 251.285 69.3388 251.605 69.6371 252.017C69.9389 252.429 70.1183 252.91 70.1751 253.46H68.625C68.5398 253.077 68.3445 252.746 68.0391 252.469C67.7372 252.192 67.3324 252.054 66.8246 252.054C66.3807 252.054 65.9918 252.171 65.658 252.406C65.3278 252.636 65.0703 252.967 64.8857 253.396C64.701 253.822 64.6087 254.327 64.6087 254.909C64.6087 255.506 64.6992 256.021 64.8803 256.454C65.0614 256.887 65.3171 257.223 65.6474 257.461C65.9812 257.699 66.3736 257.817 66.8246 257.817C67.1264 257.817 67.3999 257.762 67.6449 257.652C67.8935 257.539 68.1012 257.377 68.2681 257.168C68.4386 256.958 68.5575 256.706 68.625 256.411H70.1751C70.1183 256.94 69.946 257.413 69.6584 257.828C69.3707 258.244 68.9854 258.57 68.5025 258.808C68.0231 259.046 67.4602 259.165 66.8139 259.165ZM73.471 254.142V259H71.8783V248.091H73.4497V252.15H73.5509C73.7426 251.71 74.0356 251.36 74.4298 251.1C74.824 250.841 75.3389 250.712 75.9745 250.712C76.5356 250.712 77.0257 250.827 77.4447 251.058C77.8673 251.289 78.194 251.633 78.4248 252.091C78.6592 252.546 78.7764 253.114 78.7764 253.796V259H77.1837V253.988C77.1837 253.387 77.0292 252.922 76.7203 252.592C76.4113 252.258 75.9816 252.091 75.4312 252.091C75.0548 252.091 74.7174 252.171 74.4191 252.331C74.1244 252.491 73.8918 252.725 73.7213 253.034C73.5544 253.339 73.471 253.709 73.471 254.142ZM82.4944 254.142V259H80.9017V250.818H82.4305V252.15H82.5317C82.7199 251.717 83.0146 251.369 83.4159 251.106C83.8208 250.843 84.3303 250.712 84.9447 250.712C85.5022 250.712 85.9905 250.829 86.4095 251.063C86.8286 251.294 87.1535 251.638 87.3843 252.097C87.6151 252.555 87.7306 253.121 87.7306 253.796V259H86.1379V253.988C86.1379 253.395 85.9834 252.931 85.6744 252.597C85.3655 252.26 84.9411 252.091 84.4014 252.091C84.032 252.091 83.7036 252.171 83.4159 252.331C83.1318 252.491 82.9063 252.725 82.7394 253.034C82.5761 253.339 82.4944 253.709 82.4944 254.142ZM89.8666 259V250.818H91.4593V259H89.8666ZM90.6709 249.556C90.3939 249.556 90.156 249.463 89.9571 249.279C89.7618 249.091 89.6642 248.867 89.6642 248.608C89.6642 248.345 89.7618 248.121 89.9571 247.936C90.156 247.748 90.3939 247.654 90.6709 247.654C90.9479 247.654 91.184 247.748 91.3794 247.936C91.5782 248.121 91.6776 248.345 91.6776 248.608C91.6776 248.867 91.5782 249.091 91.3794 249.279C91.184 249.463 90.9479 249.556 90.6709 249.556ZM97.0483 259.165C96.2564 259.165 95.5746 258.986 95.0028 258.627C94.4347 258.265 93.9979 257.766 93.6925 257.13C93.3871 256.495 93.2344 255.767 93.2344 254.946C93.2344 254.115 93.3906 253.382 93.7031 252.746C94.0156 252.107 94.456 251.608 95.0241 251.25C95.5923 250.891 96.2617 250.712 97.0323 250.712C97.6538 250.712 98.2077 250.827 98.6942 251.058C99.1808 251.285 99.5732 251.605 99.8714 252.017C100.173 252.429 100.353 252.91 100.409 253.46H98.8594C98.7741 253.077 98.5788 252.746 98.2734 252.469C97.9716 252.192 97.5668 252.054 97.0589 252.054C96.6151 252.054 96.2262 252.171 95.8924 252.406C95.5621 252.636 95.3047 252.967 95.12 253.396C94.9354 253.822 94.843 254.327 94.843 254.909C94.843 255.506 94.9336 256.021 95.1147 256.454C95.2958 256.887 95.5515 257.223 95.8817 257.461C96.2156 257.699 96.608 257.817 97.0589 257.817C97.3608 257.817 97.6342 257.762 97.8793 257.652C98.1278 257.539 98.3356 257.377 98.5025 257.168C98.6729 256.958 98.7919 256.706 98.8594 256.411H100.409C100.353 256.94 100.18 257.413 99.8928 257.828C99.6051 258.244 99.2198 258.57 98.7369 258.808C98.2575 259.046 97.6946 259.165 97.0483 259.165ZM104.494 259.181C103.975 259.181 103.506 259.085 103.087 258.893C102.668 258.698 102.336 258.416 102.091 258.047C101.85 257.677 101.729 257.224 101.729 256.688C101.729 256.227 101.818 255.847 101.995 255.548C102.173 255.25 102.413 255.014 102.715 254.84C103.016 254.666 103.354 254.534 103.727 254.446C104.1 254.357 104.479 254.289 104.867 254.243C105.357 254.186 105.754 254.14 106.06 254.105C106.365 254.066 106.587 254.004 106.726 253.918C106.864 253.833 106.933 253.695 106.933 253.503V253.466C106.933 253 106.802 252.64 106.539 252.384C106.28 252.129 105.893 252.001 105.378 252.001C104.842 252.001 104.419 252.12 104.11 252.358C103.805 252.592 103.593 252.853 103.476 253.141L101.979 252.8C102.157 252.303 102.416 251.901 102.757 251.596C103.102 251.287 103.498 251.063 103.945 250.925C104.392 250.783 104.863 250.712 105.357 250.712C105.683 250.712 106.03 250.751 106.395 250.829C106.765 250.903 107.109 251.042 107.429 251.244C107.752 251.447 108.016 251.736 108.222 252.113C108.428 252.485 108.531 252.97 108.531 253.567V259H106.976V257.881H106.912C106.809 258.087 106.655 258.29 106.449 258.489C106.243 258.687 105.978 258.853 105.655 258.984C105.332 259.115 104.945 259.181 104.494 259.181ZM104.84 257.903C105.28 257.903 105.657 257.816 105.969 257.642C106.285 257.468 106.525 257.24 106.688 256.96C106.855 256.676 106.939 256.372 106.939 256.049V254.994C106.882 255.051 106.772 255.104 106.608 255.154C106.449 255.2 106.266 255.241 106.06 255.277C105.854 255.309 105.653 255.339 105.458 255.367C105.263 255.392 105.099 255.413 104.968 255.431C104.659 255.47 104.377 255.536 104.121 255.628C103.869 255.721 103.666 255.854 103.514 256.028C103.364 256.198 103.29 256.425 103.29 256.71C103.29 257.104 103.435 257.402 103.727 257.604C104.018 257.803 104.389 257.903 104.84 257.903ZM112.245 248.091V259H110.653V248.091H112.245ZM127.145 250.818V252.097H122.676V250.818H127.145ZM123.874 248.858H125.467V256.598C125.467 256.907 125.513 257.139 125.605 257.295C125.698 257.448 125.817 257.553 125.962 257.61C126.111 257.663 126.273 257.69 126.447 257.69C126.575 257.69 126.687 257.681 126.783 257.663C126.878 257.645 126.953 257.631 127.006 257.62L127.294 258.936C127.202 258.972 127.07 259.007 126.9 259.043C126.729 259.082 126.516 259.103 126.261 259.107C125.842 259.114 125.451 259.039 125.089 258.883C124.726 258.727 124.434 258.485 124.21 258.158C123.986 257.832 123.874 257.422 123.874 256.928V248.858ZM131.288 259.181C130.769 259.181 130.3 259.085 129.881 258.893C129.462 258.698 129.13 258.416 128.885 258.047C128.644 257.677 128.523 257.224 128.523 256.688C128.523 256.227 128.612 255.847 128.789 255.548C128.967 255.25 129.207 255.014 129.509 254.84C129.81 254.666 130.148 254.534 130.521 254.446C130.893 254.357 131.273 254.289 131.661 254.243C132.151 254.186 132.548 254.14 132.854 254.105C133.159 254.066 133.381 254.004 133.52 253.918C133.658 253.833 133.727 253.695 133.727 253.503V253.466C133.727 253 133.596 252.64 133.333 252.384C133.074 252.129 132.687 252.001 132.172 252.001C131.636 252.001 131.213 252.12 130.904 252.358C130.599 252.592 130.387 252.853 130.27 253.141L128.773 252.8C128.951 252.303 129.21 251.901 129.551 251.596C129.896 251.287 130.292 251.063 130.739 250.925C131.186 250.783 131.657 250.712 132.151 250.712C132.477 250.712 132.824 250.751 133.189 250.829C133.559 250.903 133.903 251.042 134.223 251.244C134.546 251.447 134.81 251.736 135.016 252.113C135.222 252.485 135.325 252.97 135.325 253.567V259H133.77V257.881H133.706C133.603 258.087 133.449 258.29 133.243 258.489C133.037 258.687 132.772 258.853 132.449 258.984C132.126 259.115 131.739 259.181 131.288 259.181ZM131.634 257.903C132.074 257.903 132.451 257.816 132.763 257.642C133.079 257.468 133.319 257.24 133.482 256.96C133.649 256.676 133.733 256.372 133.733 256.049V254.994C133.676 255.051 133.566 255.104 133.402 255.154C133.243 255.2 133.06 255.241 132.854 255.277C132.648 255.309 132.447 255.339 132.252 255.367C132.056 255.392 131.893 255.413 131.762 255.431C131.453 255.47 131.17 255.536 130.915 255.628C130.663 255.721 130.46 255.854 130.308 256.028C130.158 256.198 130.084 256.425 130.084 256.71C130.084 257.104 130.229 257.402 130.521 257.604C130.812 257.803 131.183 257.903 131.634 257.903ZM143.578 252.816L142.134 253.071C142.074 252.887 141.978 252.711 141.847 252.544C141.719 252.377 141.545 252.24 141.324 252.134C141.104 252.027 140.829 251.974 140.499 251.974C140.048 251.974 139.671 252.075 139.37 252.278C139.068 252.477 138.917 252.734 138.917 253.05C138.917 253.324 139.018 253.544 139.22 253.711C139.423 253.877 139.75 254.014 140.201 254.121L141.5 254.419C142.253 254.593 142.814 254.861 143.184 255.223C143.553 255.586 143.737 256.056 143.737 256.635C143.737 257.125 143.595 257.562 143.311 257.945C143.031 258.325 142.638 258.624 142.134 258.84C141.633 259.057 141.053 259.165 140.392 259.165C139.476 259.165 138.729 258.97 138.15 258.579C137.571 258.185 137.216 257.626 137.084 256.901L138.624 256.667C138.72 257.068 138.917 257.372 139.215 257.578C139.513 257.78 139.902 257.881 140.382 257.881C140.904 257.881 141.321 257.773 141.633 257.556C141.946 257.336 142.102 257.068 142.102 256.752C142.102 256.496 142.006 256.282 141.815 256.108C141.626 255.934 141.337 255.802 140.946 255.713L139.561 255.41C138.798 255.236 138.233 254.959 137.867 254.579C137.505 254.199 137.324 253.718 137.324 253.135C137.324 252.652 137.459 252.23 137.729 251.868C137.999 251.505 138.372 251.223 138.848 251.021C139.323 250.815 139.869 250.712 140.483 250.712C141.367 250.712 142.063 250.903 142.571 251.287C143.079 251.667 143.414 252.176 143.578 252.816ZM146.953 256.225L146.943 254.281H147.22L150.48 250.818H152.387L148.669 254.76H148.418L146.953 256.225ZM145.489 259V248.091H147.081V259H145.489ZM150.656 259L147.726 255.112L148.823 253.998L152.61 259H150.656ZM155.91 257.509L155.83 258.089C155.777 258.515 155.687 258.959 155.559 259.421C155.434 259.886 155.305 260.317 155.17 260.715C155.039 261.113 154.93 261.429 154.845 261.663H153.716C153.762 261.443 153.826 261.145 153.907 260.768C153.989 260.396 154.069 259.978 154.147 259.517C154.225 259.055 154.284 258.585 154.323 258.105L154.376 257.509H155.91ZM168.695 259L166.287 250.818H167.933L169.537 256.827H169.617L171.225 250.818H172.871L174.469 256.8H174.549L176.142 250.818H177.788L175.385 259H173.761L172.099 253.093H171.976L170.314 259H168.695ZM182.576 259.165C181.77 259.165 181.076 258.993 180.494 258.648C179.915 258.3 179.467 257.812 179.151 257.184C178.839 256.551 178.683 255.811 178.683 254.962C178.683 254.124 178.839 253.386 179.151 252.746C179.467 252.107 179.908 251.608 180.472 251.25C181.041 250.891 181.705 250.712 182.465 250.712C182.926 250.712 183.374 250.788 183.807 250.941C184.24 251.093 184.629 251.333 184.973 251.66C185.318 251.987 185.59 252.411 185.788 252.933C185.987 253.451 186.087 254.082 186.087 254.824V255.388H179.583V254.195H184.526C184.526 253.776 184.441 253.405 184.27 253.082C184.1 252.755 183.86 252.498 183.551 252.31C183.246 252.121 182.887 252.027 182.475 252.027C182.028 252.027 181.637 252.137 181.303 252.358C180.973 252.574 180.717 252.858 180.536 253.21C180.359 253.558 180.27 253.936 180.27 254.344V255.277C180.27 255.824 180.366 256.289 180.558 256.672C180.753 257.056 181.025 257.349 181.373 257.551C181.721 257.75 182.127 257.849 182.592 257.849C182.894 257.849 183.169 257.807 183.418 257.722C183.667 257.633 183.881 257.501 184.063 257.327C184.244 257.153 184.382 256.939 184.478 256.683L185.986 256.955C185.865 257.398 185.648 257.787 185.336 258.121C185.027 258.451 184.638 258.709 184.169 258.893C183.704 259.075 183.173 259.165 182.576 259.165ZM196.791 250.818H198.384V259.533C198.384 260.08 198.285 260.541 198.086 260.918C197.89 261.294 197.599 261.58 197.212 261.775C196.829 261.971 196.355 262.068 195.79 262.068C195.733 262.068 195.68 262.068 195.63 262.068C195.577 262.068 195.522 262.066 195.465 262.063V260.694C195.515 260.694 195.559 260.694 195.598 260.694C195.634 260.694 195.675 260.694 195.721 260.694C196.097 260.694 196.369 260.593 196.536 260.39C196.706 260.191 196.791 259.902 196.791 259.522V250.818ZM197.58 249.556C197.303 249.556 197.065 249.463 196.866 249.279C196.671 249.091 196.573 248.867 196.573 248.608C196.573 248.345 196.671 248.121 196.866 247.936C197.065 247.748 197.303 247.654 197.58 247.654C197.857 247.654 198.093 247.748 198.288 247.936C198.487 248.121 198.586 248.345 198.586 248.608C198.586 248.867 198.487 249.091 198.288 249.279C198.093 249.463 197.857 249.556 197.58 249.556ZM205.71 255.607V250.818H207.308V259H205.742V257.583H205.656C205.468 258.02 205.166 258.384 204.751 258.675C204.339 258.963 203.826 259.107 203.211 259.107C202.686 259.107 202.221 258.991 201.816 258.76C201.415 258.526 201.098 258.18 200.868 257.722C200.64 257.263 200.527 256.697 200.527 256.022V250.818H202.119V255.831C202.119 256.388 202.274 256.832 202.583 257.162C202.892 257.493 203.293 257.658 203.787 257.658C204.085 257.658 204.381 257.583 204.676 257.434C204.975 257.285 205.221 257.059 205.417 256.757C205.616 256.456 205.713 256.072 205.71 255.607ZM215.579 252.816L214.135 253.071C214.075 252.887 213.979 252.711 213.847 252.544C213.72 252.377 213.546 252.24 213.325 252.134C213.105 252.027 212.83 251.974 212.5 251.974C212.049 251.974 211.672 252.075 211.371 252.278C211.069 252.477 210.918 252.734 210.918 253.05C210.918 253.324 211.019 253.544 211.221 253.711C211.424 253.877 211.751 254.014 212.202 254.121L213.501 254.419C214.254 254.593 214.815 254.861 215.184 255.223C215.554 255.586 215.738 256.056 215.738 256.635C215.738 257.125 215.596 257.562 215.312 257.945C215.032 258.325 214.639 258.624 214.135 258.84C213.634 259.057 213.054 259.165 212.393 259.165C211.477 259.165 210.73 258.97 210.151 258.579C209.572 258.185 209.217 257.626 209.085 256.901L210.625 256.667C210.721 257.068 210.918 257.372 211.216 257.578C211.514 257.78 211.903 257.881 212.383 257.881C212.905 257.881 213.322 257.773 213.634 257.556C213.947 257.336 214.103 257.068 214.103 256.752C214.103 256.496 214.007 256.282 213.816 256.108C213.627 255.934 213.338 255.802 212.947 255.713L211.562 255.41C210.799 255.236 210.234 254.959 209.868 254.579C209.506 254.199 209.325 253.718 209.325 253.135C209.325 252.652 209.46 252.23 209.73 251.868C210 251.505 210.373 251.223 210.849 251.021C211.324 250.815 211.869 250.712 212.484 250.712C213.368 250.712 214.064 250.903 214.572 251.287C215.08 251.667 215.415 252.176 215.579 252.816ZM221.309 250.818V252.097H216.84V250.818H221.309ZM218.038 248.858H219.631V256.598C219.631 256.907 219.677 257.139 219.769 257.295C219.862 257.448 219.981 257.553 220.126 257.61C220.275 257.663 220.437 257.69 220.611 257.69C220.739 257.69 220.851 257.681 220.947 257.663C221.043 257.645 221.117 257.631 221.17 257.62L221.458 258.936C221.366 258.972 221.234 259.007 221.064 259.043C220.893 259.082 220.68 259.103 220.425 259.107C220.006 259.114 219.615 259.039 219.253 258.883C218.891 258.727 218.598 258.485 218.374 258.158C218.15 257.832 218.038 257.422 218.038 256.928V248.858ZM50.6634 272.142V277H49.0707V266.091H50.642V270.15H50.7433C50.935 269.71 51.228 269.36 51.6222 269.1C52.0163 268.841 52.5313 268.712 53.1669 268.712C53.728 268.712 54.218 268.827 54.6371 269.058C55.0597 269.289 55.3864 269.633 55.6172 270.091C55.8516 270.546 55.9688 271.114 55.9688 271.796V277H54.3761V271.988C54.3761 271.387 54.2216 270.922 53.9126 270.592C53.6037 270.258 53.174 270.091 52.6236 270.091C52.2472 270.091 51.9098 270.171 51.6115 270.331C51.3168 270.491 51.0842 270.725 50.9137 271.034C50.7468 271.339 50.6634 271.709 50.6634 272.142ZM60.4751 277.181C59.9567 277.181 59.4879 277.085 59.0689 276.893C58.6499 276.698 58.3178 276.416 58.0728 276.047C57.8313 275.677 57.7106 275.224 57.7106 274.688C57.7106 274.227 57.7994 273.847 57.9769 273.548C58.1545 273.25 58.3942 273.014 58.696 272.84C58.9979 272.666 59.3352 272.534 59.7081 272.446C60.081 272.357 60.4609 272.289 60.848 272.243C61.3381 272.186 61.7358 272.14 62.0412 272.105C62.3466 272.066 62.5685 272.004 62.707 271.918C62.8455 271.833 62.9148 271.695 62.9148 271.503V271.466C62.9148 271 62.7834 270.64 62.5206 270.384C62.2614 270.129 61.8743 270.001 61.3594 270.001C60.8232 270.001 60.4006 270.12 60.0916 270.358C59.7862 270.592 59.5749 270.853 59.4577 271.141L57.9609 270.8C58.1385 270.303 58.3977 269.901 58.7386 269.596C59.0831 269.287 59.479 269.063 59.9265 268.925C60.3739 268.783 60.8445 268.712 61.3381 268.712C61.6648 268.712 62.011 268.751 62.3768 268.829C62.7461 268.903 63.0906 269.042 63.4102 269.244C63.7333 269.447 63.9979 269.736 64.2038 270.113C64.4098 270.485 64.5128 270.97 64.5128 271.567V277H62.9574V275.881H62.8935C62.7905 276.087 62.636 276.29 62.43 276.489C62.2241 276.687 61.9595 276.853 61.6364 276.984C61.3132 277.115 60.9261 277.181 60.4751 277.181ZM60.8214 275.903C61.2617 275.903 61.6381 275.816 61.9506 275.642C62.2667 275.468 62.5064 275.24 62.6697 274.96C62.8366 274.676 62.9201 274.372 62.9201 274.049V272.994C62.8633 273.051 62.7532 273.104 62.5898 273.154C62.43 273.2 62.2472 273.241 62.0412 273.277C61.8352 273.309 61.6346 273.339 61.4393 273.367C61.244 273.392 61.0806 273.413 60.9492 273.431C60.6403 273.47 60.358 273.536 60.1023 273.628C59.8501 273.721 59.6477 273.854 59.495 274.028C59.3459 274.198 59.2713 274.425 59.2713 274.71C59.2713 275.104 59.4169 275.402 59.7081 275.604C59.9993 275.803 60.3704 275.903 60.8214 275.903ZM73.3405 268.818L70.3735 277H68.6689L65.6966 268.818H67.4065L69.4786 275.114H69.5638L71.6306 268.818H73.3405ZM78.0852 277.165C77.2791 277.165 76.5849 276.993 76.0025 276.648C75.4237 276.3 74.9762 275.812 74.6602 275.184C74.3477 274.551 74.1914 273.811 74.1914 272.962C74.1914 272.124 74.3477 271.386 74.6602 270.746C74.9762 270.107 75.4165 269.608 75.9812 269.25C76.5494 268.891 77.2134 268.712 77.9734 268.712C78.435 268.712 78.8825 268.788 79.3157 268.941C79.7489 269.093 80.1378 269.333 80.4822 269.66C80.8267 269.987 81.0984 270.411 81.2972 270.933C81.4961 271.451 81.5955 272.082 81.5955 272.824V273.388H75.0916V272.195H80.0348C80.0348 271.776 79.9496 271.405 79.7791 271.082C79.6087 270.755 79.369 270.498 79.06 270.31C78.7546 270.121 78.396 270.027 77.984 270.027C77.5366 270.027 77.146 270.137 76.8121 270.358C76.4819 270.574 76.2262 270.858 76.0451 271.21C75.8675 271.558 75.7788 271.936 75.7788 272.344V273.277C75.7788 273.824 75.8746 274.289 76.0664 274.672C76.2617 275.056 76.5334 275.349 76.8814 275.551C77.2294 275.75 77.636 275.849 78.1012 275.849C78.4031 275.849 78.6783 275.807 78.9268 275.722C79.1754 275.633 79.3903 275.501 79.5714 275.327C79.7525 275.153 79.891 274.939 79.9869 274.683L81.4943 274.955C81.3736 275.398 81.157 275.787 80.8445 276.121C80.5355 276.451 80.1467 276.709 79.6779 276.893C79.2127 277.075 78.6818 277.165 78.0852 277.165ZM94.7237 268.818V270.097H90.2545V268.818H94.7237ZM91.4531 266.858H93.0457V274.598C93.0457 274.907 93.0919 275.139 93.1842 275.295C93.2766 275.448 93.3955 275.553 93.5411 275.61C93.6903 275.663 93.8519 275.69 94.0259 275.69C94.1537 275.69 94.2656 275.681 94.3614 275.663C94.4573 275.645 94.5319 275.631 94.5852 275.62L94.8728 276.936C94.7805 276.972 94.6491 277.007 94.4786 277.043C94.3082 277.082 94.0951 277.103 93.8394 277.107C93.4204 277.114 93.0298 277.039 92.6675 276.883C92.3053 276.727 92.0124 276.485 91.7886 276.158C91.5649 275.832 91.4531 275.422 91.4531 274.928V266.858ZM99.8439 277.165C99.0769 277.165 98.4075 276.989 97.8358 276.638C97.264 276.286 96.8202 275.794 96.5041 275.162C96.1881 274.53 96.03 273.792 96.03 272.946C96.03 272.098 96.1881 271.355 96.5041 270.72C96.8202 270.084 97.264 269.591 97.8358 269.239C98.4075 268.887 99.0769 268.712 99.8439 268.712C100.611 268.712 101.28 268.887 101.852 269.239C102.424 269.591 102.868 270.084 103.184 270.72C103.5 271.355 103.658 272.098 103.658 272.946C103.658 273.792 103.5 274.53 103.184 275.162C102.868 275.794 102.424 276.286 101.852 276.638C101.28 276.989 100.611 277.165 99.8439 277.165ZM99.8493 275.828C100.346 275.828 100.758 275.697 101.085 275.434C101.412 275.171 101.653 274.821 101.81 274.385C101.969 273.948 102.049 273.467 102.049 272.941C102.049 272.419 101.969 271.94 101.81 271.503C101.653 271.062 101.412 270.709 101.085 270.443C100.758 270.176 100.346 270.043 99.8493 270.043C99.3486 270.043 98.9331 270.176 98.6028 270.443C98.2761 270.709 98.0329 271.062 97.8731 271.503C97.7168 271.94 97.6387 272.419 97.6387 272.941C97.6387 273.467 97.7168 273.948 97.8731 274.385C98.0329 274.821 98.2761 275.171 98.6028 275.434C98.9331 275.697 99.3486 275.828 99.8493 275.828ZM119.108 270.816L117.665 271.071C117.605 270.887 117.509 270.711 117.377 270.544C117.249 270.377 117.075 270.24 116.855 270.134C116.635 270.027 116.36 269.974 116.03 269.974C115.579 269.974 115.202 270.075 114.9 270.278C114.598 270.477 114.448 270.734 114.448 271.05C114.448 271.324 114.549 271.544 114.751 271.711C114.954 271.877 115.28 272.014 115.731 272.121L117.031 272.419C117.784 272.593 118.345 272.861 118.714 273.223C119.084 273.586 119.268 274.056 119.268 274.635C119.268 275.125 119.126 275.562 118.842 275.945C118.562 276.325 118.169 276.624 117.665 276.84C117.164 277.057 116.584 277.165 115.923 277.165C115.007 277.165 114.259 276.97 113.681 276.579C113.102 276.185 112.747 275.626 112.615 274.901L114.155 274.667C114.25 275.068 114.448 275.372 114.746 275.578C115.044 275.78 115.433 275.881 115.912 275.881C116.434 275.881 116.852 275.773 117.164 275.556C117.477 275.336 117.633 275.068 117.633 274.752C117.633 274.496 117.537 274.282 117.345 274.108C117.157 273.934 116.868 273.802 116.477 273.713L115.092 273.41C114.329 273.236 113.764 272.959 113.398 272.579C113.036 272.199 112.855 271.718 112.855 271.135C112.855 270.652 112.99 270.23 113.26 269.868C113.53 269.505 113.902 269.223 114.378 269.021C114.854 268.815 115.399 268.712 116.014 268.712C116.898 268.712 117.594 268.903 118.102 269.287C118.61 269.667 118.945 270.176 119.108 270.816ZM121.019 277V268.818H122.612V277H121.019ZM121.824 267.556C121.547 267.556 121.309 267.463 121.11 267.279C120.915 267.091 120.817 266.867 120.817 266.608C120.817 266.345 120.915 266.121 121.11 265.936C121.309 265.748 121.547 265.654 121.824 265.654C122.101 265.654 122.337 265.748 122.532 265.936C122.731 266.121 122.83 266.345 122.83 266.608C122.83 266.867 122.731 267.091 122.532 267.279C122.337 267.463 122.101 267.556 121.824 267.556ZM128.574 268.818V270.097H124.105V268.818H128.574ZM125.303 266.858H126.896V274.598C126.896 274.907 126.942 275.139 127.035 275.295C127.127 275.448 127.246 275.553 127.391 275.61C127.541 275.663 127.702 275.69 127.876 275.69C128.004 275.69 128.116 275.681 128.212 275.663C128.308 275.645 128.382 275.631 128.436 275.62L128.723 276.936C128.631 276.972 128.499 277.007 128.329 277.043C128.159 277.082 127.945 277.103 127.69 277.107C127.271 277.114 126.88 277.039 126.518 276.883C126.156 276.727 125.863 276.485 125.639 276.158C125.415 275.832 125.303 275.422 125.303 274.928V266.858ZM140.94 277.16C140.28 277.16 139.69 276.991 139.172 276.654C138.657 276.313 138.252 275.828 137.957 275.2C137.666 274.567 137.521 273.809 137.521 272.925C137.521 272.041 137.668 271.284 137.963 270.656C138.261 270.027 138.669 269.546 139.188 269.212C139.706 268.879 140.294 268.712 140.951 268.712C141.459 268.712 141.867 268.797 142.176 268.967C142.489 269.134 142.73 269.33 142.901 269.553C143.075 269.777 143.21 269.974 143.305 270.145H143.401V266.091H144.994V277H143.439V275.727H143.305C143.21 275.901 143.071 276.1 142.89 276.324C142.712 276.547 142.467 276.743 142.155 276.909C141.842 277.076 141.438 277.16 140.94 277.16ZM141.292 275.801C141.75 275.801 142.137 275.681 142.453 275.439C142.773 275.194 143.014 274.855 143.178 274.422C143.345 273.989 143.428 273.484 143.428 272.909C143.428 272.341 143.346 271.844 143.183 271.418C143.02 270.991 142.78 270.659 142.464 270.422C142.148 270.184 141.757 270.065 141.292 270.065C140.813 270.065 140.413 270.189 140.093 270.438C139.774 270.686 139.532 271.025 139.369 271.455C139.209 271.885 139.129 272.369 139.129 272.909C139.129 273.456 139.211 273.948 139.374 274.385C139.538 274.821 139.779 275.168 140.099 275.423C140.422 275.675 140.82 275.801 141.292 275.801ZM150.714 277.165C149.947 277.165 149.277 276.989 148.705 276.638C148.134 276.286 147.69 275.794 147.374 275.162C147.058 274.53 146.9 273.792 146.9 272.946C146.9 272.098 147.058 271.355 147.374 270.72C147.69 270.084 148.134 269.591 148.705 269.239C149.277 268.887 149.947 268.712 150.714 268.712C151.481 268.712 152.15 268.887 152.722 269.239C153.293 269.591 153.737 270.084 154.053 270.72C154.369 271.355 154.527 272.098 154.527 272.946C154.527 273.792 154.369 274.53 154.053 275.162C153.737 275.794 153.293 276.286 152.722 276.638C152.15 276.989 151.481 277.165 150.714 277.165ZM150.719 275.828C151.216 275.828 151.628 275.697 151.955 275.434C152.281 275.171 152.523 274.821 152.679 274.385C152.839 273.948 152.919 273.467 152.919 272.941C152.919 272.419 152.839 271.94 152.679 271.503C152.523 271.062 152.281 270.709 151.955 270.443C151.628 270.176 151.216 270.043 150.719 270.043C150.218 270.043 149.803 270.176 149.472 270.443C149.146 270.709 148.902 271.062 148.743 271.503C148.586 271.94 148.508 272.419 148.508 272.941C148.508 273.467 148.586 273.948 148.743 274.385C148.902 274.821 149.146 275.171 149.472 275.434C149.803 275.697 150.218 275.828 150.719 275.828ZM157.83 277L155.422 268.818H157.068L158.672 274.827H158.752L160.36 268.818H162.006L163.604 274.8H163.684L165.277 268.818H166.923L164.52 277H162.896L161.234 271.093H161.111L159.449 277H157.83ZM170.027 272.142V277H168.434V268.818H169.963V270.15H170.064C170.252 269.717 170.547 269.369 170.948 269.106C171.353 268.843 171.863 268.712 172.477 268.712C173.035 268.712 173.523 268.829 173.942 269.063C174.361 269.294 174.686 269.638 174.917 270.097C175.148 270.555 175.263 271.121 175.263 271.796V277H173.67V271.988C173.67 271.395 173.516 270.931 173.207 270.597C172.898 270.26 172.474 270.091 171.934 270.091C171.565 270.091 171.236 270.171 170.948 270.331C170.664 270.491 170.439 270.725 170.272 271.034C170.109 271.339 170.027 271.709 170.027 272.142ZM179.471 275.509L179.391 276.089C179.338 276.515 179.247 276.959 179.12 277.421C178.995 277.886 178.866 278.317 178.731 278.715C178.599 279.113 178.491 279.429 178.406 279.663H177.277C177.323 279.443 177.387 279.145 177.468 278.768C177.55 278.396 177.63 277.978 177.708 277.517C177.786 277.055 177.845 276.585 177.884 276.105L177.937 275.509H179.471ZM195.217 270.816L193.774 271.071C193.713 270.887 193.618 270.711 193.486 270.544C193.358 270.377 193.184 270.24 192.964 270.134C192.744 270.027 192.469 269.974 192.138 269.974C191.688 269.974 191.311 270.075 191.009 270.278C190.707 270.477 190.556 270.734 190.556 271.05C190.556 271.324 190.658 271.544 190.86 271.711C191.063 271.877 191.389 272.014 191.84 272.121L193.14 272.419C193.893 272.593 194.454 272.861 194.823 273.223C195.192 273.586 195.377 274.056 195.377 274.635C195.377 275.125 195.235 275.562 194.951 275.945C194.67 276.325 194.278 276.624 193.774 276.84C193.273 277.057 192.692 277.165 192.032 277.165C191.116 277.165 190.368 276.97 189.789 276.579C189.211 276.185 188.855 275.626 188.724 274.901L190.263 274.667C190.359 275.068 190.556 275.372 190.855 275.578C191.153 275.78 191.542 275.881 192.021 275.881C192.543 275.881 192.961 275.773 193.273 275.556C193.586 275.336 193.742 275.068 193.742 274.752C193.742 274.496 193.646 274.282 193.454 274.108C193.266 273.934 192.977 273.802 192.586 273.713L191.201 273.41C190.438 273.236 189.873 272.959 189.507 272.579C189.145 272.199 188.964 271.718 188.964 271.135C188.964 270.652 189.099 270.23 189.369 269.868C189.638 269.505 190.011 269.223 190.487 269.021C190.963 268.815 191.508 268.712 192.123 268.712C193.007 268.712 193.703 268.903 194.211 269.287C194.718 269.667 195.054 270.176 195.217 270.816ZM200.948 268.818V270.097H196.478V268.818H200.948ZM197.677 266.858H199.27V274.598C199.27 274.907 199.316 275.139 199.408 275.295C199.5 275.448 199.619 275.553 199.765 275.61C199.914 275.663 200.076 275.69 200.25 275.69C200.378 275.69 200.489 275.681 200.585 275.663C200.681 275.645 200.756 275.631 200.809 275.62L201.097 276.936C201.004 276.972 200.873 277.007 200.703 277.043C200.532 277.082 200.319 277.103 200.063 277.107C199.644 277.114 199.254 277.039 198.891 276.883C198.529 276.727 198.236 276.485 198.013 276.158C197.789 275.832 197.677 275.422 197.677 274.928V266.858ZM205.09 277.181C204.572 277.181 204.103 277.085 203.684 276.893C203.265 276.698 202.933 276.416 202.688 276.047C202.447 275.677 202.326 275.224 202.326 274.688C202.326 274.227 202.415 273.847 202.592 273.548C202.77 273.25 203.009 273.014 203.311 272.84C203.613 272.666 203.95 272.534 204.323 272.446C204.696 272.357 205.076 272.289 205.463 272.243C205.953 272.186 206.351 272.14 206.656 272.105C206.962 272.066 207.184 272.004 207.322 271.918C207.461 271.833 207.53 271.695 207.53 271.503V271.466C207.53 271 207.399 270.64 207.136 270.384C206.877 270.129 206.49 270.001 205.975 270.001C205.438 270.001 205.016 270.12 204.707 270.358C204.401 270.592 204.19 270.853 204.073 271.141L202.576 270.8C202.754 270.303 203.013 269.901 203.354 269.596C203.698 269.287 204.094 269.063 204.542 268.925C204.989 268.783 205.46 268.712 205.953 268.712C206.28 268.712 206.626 268.751 206.992 268.829C207.361 268.903 207.706 269.042 208.025 269.244C208.349 269.447 208.613 269.736 208.819 270.113C209.025 270.485 209.128 270.97 209.128 271.567V277H207.573V275.881H207.509C207.406 276.087 207.251 276.29 207.045 276.489C206.839 276.687 206.575 276.853 206.252 276.984C205.928 277.115 205.541 277.181 205.09 277.181ZM205.437 275.903C205.877 275.903 206.253 275.816 206.566 275.642C206.882 275.468 207.122 275.24 207.285 274.96C207.452 274.676 207.535 274.372 207.535 274.049V272.994C207.479 273.051 207.368 273.104 207.205 273.154C207.045 273.2 206.862 273.241 206.656 273.277C206.45 273.309 206.25 273.339 206.055 273.367C205.859 273.392 205.696 273.413 205.564 273.431C205.256 273.47 204.973 273.536 204.718 273.628C204.465 273.721 204.263 273.854 204.11 274.028C203.961 274.198 203.887 274.425 203.887 274.71C203.887 275.104 204.032 275.402 204.323 275.604C204.615 275.803 204.986 275.903 205.437 275.903ZM211.249 277V268.818H212.789V270.118H212.874C213.023 269.678 213.286 269.331 213.662 269.079C214.042 268.824 214.472 268.696 214.951 268.696C215.051 268.696 215.168 268.699 215.303 268.706C215.441 268.713 215.55 268.722 215.628 268.733V270.256C215.564 270.239 215.45 270.219 215.287 270.198C215.124 270.173 214.96 270.161 214.797 270.161C214.421 270.161 214.085 270.24 213.79 270.4C213.499 270.556 213.268 270.775 213.098 271.055C212.927 271.332 212.842 271.648 212.842 272.004V277H211.249ZM221.309 268.818V270.097H216.84V268.818H221.309ZM218.038 266.858H219.631V274.598C219.631 274.907 219.677 275.139 219.769 275.295C219.862 275.448 219.981 275.553 220.126 275.61C220.275 275.663 220.437 275.69 220.611 275.69C220.739 275.69 220.851 275.681 220.947 275.663C221.043 275.645 221.117 275.631 221.17 275.62L221.458 276.936C221.366 276.972 221.234 277.007 221.064 277.043C220.893 277.082 220.68 277.103 220.425 277.107C220.006 277.114 219.615 277.039 219.253 276.883C218.891 276.727 218.598 276.485 218.374 276.158C218.15 275.832 218.038 275.422 218.038 274.928V266.858ZM50.8445 295L48.4368 286.818H50.0827L51.6861 292.827H51.766L53.3746 286.818H55.0206L56.6186 292.8H56.6985L58.2912 286.818H59.9371L57.5348 295H55.9102L54.2482 289.093H54.1257L52.4638 295H50.8445ZM64.646 295.165C63.8789 295.165 63.2095 294.989 62.6378 294.638C62.0661 294.286 61.6222 293.794 61.3061 293.162C60.9901 292.53 60.832 291.792 60.832 290.946C60.832 290.098 60.9901 289.355 61.3061 288.72C61.6222 288.084 62.0661 287.591 62.6378 287.239C63.2095 286.887 63.8789 286.712 64.646 286.712C65.413 286.712 66.0824 286.887 66.6541 287.239C67.2259 287.591 67.6697 288.084 67.9858 288.72C68.3018 289.355 68.4599 290.098 68.4599 290.946C68.4599 291.792 68.3018 292.53 67.9858 293.162C67.6697 293.794 67.2259 294.286 66.6541 294.638C66.0824 294.989 65.413 295.165 64.646 295.165ZM64.6513 293.828C65.1484 293.828 65.5604 293.697 65.8871 293.434C66.2138 293.171 66.4553 292.821 66.6115 292.385C66.7713 291.948 66.8512 291.467 66.8512 290.941C66.8512 290.419 66.7713 289.94 66.6115 289.503C66.4553 289.062 66.2138 288.709 65.8871 288.443C65.5604 288.176 65.1484 288.043 64.6513 288.043C64.1506 288.043 63.7351 288.176 63.4048 288.443C63.0781 288.709 62.8349 289.062 62.6751 289.503C62.5188 289.94 62.4407 290.419 62.4407 290.941C62.4407 291.467 62.5188 291.948 62.6751 292.385C62.8349 292.821 63.0781 293.171 63.4048 293.434C63.7351 293.697 64.1506 293.828 64.6513 293.828ZM70.2377 295V286.818H71.7771V288.118H71.8623C72.0115 287.678 72.2742 287.331 72.6507 287.079C73.0306 286.824 73.4603 286.696 73.9397 286.696C74.0392 286.696 74.1563 286.699 74.2913 286.706C74.4298 286.713 74.5381 286.722 74.6162 286.733V288.256C74.5523 288.239 74.4387 288.219 74.2753 288.198C74.1119 288.173 73.9486 288.161 73.7852 288.161C73.4088 288.161 73.0732 288.24 72.7785 288.4C72.4873 288.556 72.2565 288.775 72.086 289.055C71.9156 289.332 71.8303 289.648 71.8303 290.004V295H70.2377ZM77.4593 292.225L77.4487 290.281H77.7257L80.9856 286.818H82.8926L79.1745 290.76H78.9242L77.4593 292.225ZM75.9945 295V284.091H77.5872V295H75.9945ZM81.1614 295L78.2317 291.112L79.329 289.998L83.1163 295H81.1614ZM84.3441 295V286.818H85.9368V295H84.3441ZM85.1484 285.556C84.8714 285.556 84.6335 285.463 84.4347 285.279C84.2393 285.091 84.1417 284.867 84.1417 284.608C84.1417 284.345 84.2393 284.121 84.4347 283.936C84.6335 283.748 84.8714 283.654 85.1484 283.654C85.4254 283.654 85.6616 283.748 85.8569 283.936C86.0558 284.121 86.1552 284.345 86.1552 284.608C86.1552 284.867 86.0558 285.091 85.8569 285.279C85.6616 285.463 85.4254 285.556 85.1484 285.556ZM89.6721 290.142V295H88.0795V286.818H89.6082V288.15H89.7094C89.8976 287.717 90.1924 287.369 90.5937 287.106C90.9985 286.843 91.5081 286.712 92.1224 286.712C92.68 286.712 93.1682 286.829 93.5873 287.063C94.0063 287.294 94.3312 287.638 94.5621 288.097C94.7929 288.555 94.9083 289.121 94.9083 289.796V295H93.3156V289.988C93.3156 289.395 93.1611 288.931 92.8522 288.597C92.5432 288.26 92.1189 288.091 91.5791 288.091C91.2098 288.091 90.8813 288.171 90.5937 288.331C90.3096 288.491 90.0841 288.725 89.9172 289.034C89.7538 289.339 89.6721 289.709 89.6721 290.142ZM100.475 298.239C99.8248 298.239 99.2655 298.153 98.7968 297.983C98.3316 297.813 97.9516 297.587 97.6569 297.306C97.3621 297.026 97.142 296.719 96.9964 296.385L98.3653 295.82C98.4612 295.977 98.589 296.142 98.7488 296.316C98.9122 296.493 99.1324 296.644 99.4094 296.768C99.6899 296.893 100.05 296.955 100.491 296.955C101.094 296.955 101.593 296.808 101.987 296.513C102.382 296.222 102.579 295.756 102.579 295.117V293.509H102.478C102.382 293.683 102.243 293.876 102.062 294.089C101.884 294.302 101.639 294.487 101.327 294.643C101.014 294.799 100.608 294.877 100.107 294.877C99.4608 294.877 98.8785 294.727 98.36 294.425C97.8451 294.119 97.4367 293.67 97.1349 293.077C96.8366 292.48 96.6874 291.747 96.6874 290.877C96.6874 290.007 96.8348 289.261 97.1295 288.64C97.4278 288.018 97.8362 287.543 98.3547 287.212C98.8731 286.879 99.4608 286.712 100.118 286.712C100.626 286.712 101.036 286.797 101.348 286.967C101.661 287.134 101.904 287.33 102.078 287.553C102.256 287.777 102.392 287.974 102.488 288.145H102.605V286.818H104.166V295.181C104.166 295.884 104.003 296.461 103.676 296.912C103.349 297.363 102.907 297.697 102.35 297.914C101.796 298.13 101.171 298.239 100.475 298.239ZM100.459 293.556C100.917 293.556 101.304 293.45 101.62 293.237C101.94 293.02 102.181 292.711 102.344 292.31C102.511 291.905 102.595 291.42 102.595 290.856C102.595 290.305 102.513 289.821 102.35 289.402C102.186 288.983 101.947 288.656 101.631 288.422C101.315 288.184 100.924 288.065 100.459 288.065C99.9793 288.065 99.5798 288.189 99.2602 288.438C98.9406 288.683 98.6991 289.016 98.5358 289.439C98.376 289.862 98.2961 290.334 98.2961 290.856C98.2961 291.392 98.3778 291.863 98.5411 292.267C98.7045 292.672 98.9459 292.988 99.2655 293.216C99.5887 293.443 99.9864 293.556 100.459 293.556ZM108.374 293.509L108.294 294.089C108.241 294.515 108.15 294.959 108.023 295.421C107.898 295.886 107.769 296.317 107.634 296.715C107.502 297.113 107.394 297.429 107.309 297.663H106.18C106.226 297.443 106.29 297.145 106.371 296.768C106.453 296.396 106.533 295.978 106.611 295.517C106.689 295.055 106.748 294.585 106.787 294.105L106.84 293.509H108.374ZM117.277 295.181C116.759 295.181 116.29 295.085 115.871 294.893C115.452 294.698 115.12 294.416 114.875 294.047C114.634 293.677 114.513 293.224 114.513 292.688C114.513 292.227 114.602 291.847 114.779 291.548C114.957 291.25 115.196 291.014 115.498 290.84C115.8 290.666 116.137 290.534 116.51 290.446C116.883 290.357 117.263 290.289 117.65 290.243C118.14 290.186 118.538 290.14 118.843 290.105C119.149 290.066 119.371 290.004 119.509 289.918C119.648 289.833 119.717 289.695 119.717 289.503V289.466C119.717 289 119.586 288.64 119.323 288.384C119.064 288.129 118.677 288.001 118.162 288.001C117.625 288.001 117.203 288.12 116.894 288.358C116.588 288.592 116.377 288.853 116.26 289.141L114.763 288.8C114.941 288.303 115.2 287.901 115.541 287.596C115.885 287.287 116.281 287.063 116.729 286.925C117.176 286.783 117.647 286.712 118.14 286.712C118.467 286.712 118.813 286.751 119.179 286.829C119.548 286.903 119.893 287.042 120.212 287.244C120.536 287.447 120.8 287.736 121.006 288.113C121.212 288.485 121.315 288.97 121.315 289.567V295H119.76V293.881H119.696C119.593 294.087 119.438 294.29 119.232 294.489C119.026 294.687 118.762 294.853 118.439 294.984C118.115 295.115 117.728 295.181 117.277 295.181ZM117.624 293.903C118.064 293.903 118.44 293.816 118.753 293.642C119.069 293.468 119.309 293.24 119.472 292.96C119.639 292.676 119.722 292.372 119.722 292.049V290.994C119.666 291.051 119.555 291.104 119.392 291.154C119.232 291.2 119.049 291.241 118.843 291.277C118.637 291.309 118.437 291.339 118.242 291.367C118.046 291.392 117.883 291.413 117.751 291.431C117.443 291.47 117.16 291.536 116.905 291.628C116.652 291.721 116.45 291.854 116.297 292.028C116.148 292.198 116.074 292.425 116.074 292.71C116.074 293.104 116.219 293.402 116.51 293.604C116.802 293.803 117.173 293.903 117.624 293.903ZM125.029 290.142V295H123.436V286.818H124.965V288.15H125.066C125.255 287.717 125.549 287.369 125.951 287.106C126.355 286.843 126.865 286.712 127.479 286.712C128.037 286.712 128.525 286.829 128.944 287.063C129.363 287.294 129.688 287.638 129.919 288.097C130.15 288.555 130.265 289.121 130.265 289.796V295H128.673V289.988C128.673 289.395 128.518 288.931 128.209 288.597C127.9 288.26 127.476 288.091 126.936 288.091C126.567 288.091 126.238 288.171 125.951 288.331C125.667 288.491 125.441 288.725 125.274 289.034C125.111 289.339 125.029 289.709 125.029 290.142ZM135.464 295.16C134.804 295.16 134.214 294.991 133.696 294.654C133.181 294.313 132.776 293.828 132.481 293.2C132.19 292.567 132.044 291.809 132.044 290.925C132.044 290.041 132.192 289.284 132.486 288.656C132.785 288.027 133.193 287.546 133.712 287.212C134.23 286.879 134.818 286.712 135.475 286.712C135.983 286.712 136.391 286.797 136.7 286.967C137.012 287.134 137.254 287.33 137.424 287.553C137.598 287.777 137.733 287.974 137.829 288.145H137.925V284.091H139.518V295H137.962V293.727H137.829C137.733 293.901 137.595 294.1 137.414 294.324C137.236 294.547 136.991 294.743 136.679 294.909C136.366 295.076 135.961 295.16 135.464 295.16ZM135.816 293.801C136.274 293.801 136.661 293.681 136.977 293.439C137.296 293.194 137.538 292.855 137.701 292.422C137.868 291.989 137.952 291.484 137.952 290.909C137.952 290.341 137.87 289.844 137.707 289.418C137.543 288.991 137.304 288.659 136.988 288.422C136.671 288.184 136.281 288.065 135.816 288.065C135.336 288.065 134.937 288.189 134.617 288.438C134.298 288.686 134.056 289.025 133.893 289.455C133.733 289.885 133.653 290.369 133.653 290.909C133.653 291.456 133.735 291.948 133.898 292.385C134.061 292.821 134.303 293.168 134.622 293.423C134.946 293.675 135.343 293.801 135.816 293.801ZM149.766 295.165C148.96 295.165 148.266 294.993 147.683 294.648C147.104 294.3 146.657 293.812 146.341 293.184C146.028 292.551 145.872 291.811 145.872 290.962C145.872 290.124 146.028 289.386 146.341 288.746C146.657 288.107 147.097 287.608 147.662 287.25C148.23 286.891 148.894 286.712 149.654 286.712C150.116 286.712 150.563 286.788 150.996 286.941C151.43 287.093 151.818 287.333 152.163 287.66C152.507 287.987 152.779 288.411 152.978 288.933C153.177 289.451 153.276 290.082 153.276 290.824V291.388H146.772V290.195H151.715C151.715 289.776 151.63 289.405 151.46 289.082C151.289 288.755 151.05 288.498 150.741 288.31C150.435 288.121 150.077 288.027 149.665 288.027C149.217 288.027 148.827 288.137 148.493 288.358C148.163 288.574 147.907 288.858 147.726 289.21C147.548 289.558 147.459 289.936 147.459 290.344V291.277C147.459 291.824 147.555 292.289 147.747 292.672C147.942 293.056 148.214 293.349 148.562 293.551C148.91 293.75 149.317 293.849 149.782 293.849C150.084 293.849 150.359 293.807 150.608 293.722C150.856 293.633 151.071 293.501 151.252 293.327C151.433 293.153 151.572 292.939 151.668 292.683L153.175 292.955C153.054 293.398 152.838 293.787 152.525 294.121C152.216 294.451 151.827 294.709 151.359 294.893C150.893 295.075 150.362 295.165 149.766 295.165ZM161.808 286.818L158.841 295H157.137L154.164 286.818H155.874L157.946 293.114H158.032L160.098 286.818H161.808ZM166.553 295.165C165.747 295.165 165.053 294.993 164.47 294.648C163.891 294.3 163.444 293.812 163.128 293.184C162.815 292.551 162.659 291.811 162.659 290.962C162.659 290.124 162.815 289.386 163.128 288.746C163.444 288.107 163.884 287.608 164.449 287.25C165.017 286.891 165.681 286.712 166.441 286.712C166.903 286.712 167.35 286.788 167.783 286.941C168.217 287.093 168.606 287.333 168.95 287.66C169.294 287.987 169.566 288.411 169.765 288.933C169.964 289.451 170.063 290.082 170.063 290.824V291.388H163.559V290.195H168.503C168.503 289.776 168.417 289.405 168.247 289.082C168.076 288.755 167.837 288.498 167.528 288.31C167.222 288.121 166.864 288.027 166.452 288.027C166.004 288.027 165.614 288.137 165.28 288.358C164.95 288.574 164.694 288.858 164.513 289.21C164.335 289.558 164.247 289.936 164.247 290.344V291.277C164.247 291.824 164.342 292.289 164.534 292.672C164.729 293.056 165.001 293.349 165.349 293.551C165.697 293.75 166.104 293.849 166.569 293.849C166.871 293.849 167.146 293.807 167.395 293.722C167.643 293.633 167.858 293.501 168.039 293.327C168.22 293.153 168.359 292.939 168.455 292.683L169.962 292.955C169.841 293.398 169.625 293.787 169.312 294.121C169.003 294.451 168.614 294.709 168.146 294.893C167.68 295.075 167.15 295.165 166.553 295.165ZM171.83 295V286.818H173.37V288.118H173.455C173.604 287.678 173.867 287.331 174.243 287.079C174.623 286.824 175.053 286.696 175.532 286.696C175.632 286.696 175.749 286.699 175.884 286.706C176.023 286.713 176.131 286.722 176.209 286.733V288.256C176.145 288.239 176.031 288.219 175.868 288.198C175.705 288.173 175.541 288.161 175.378 288.161C175.002 288.161 174.666 288.24 174.371 288.4C174.08 288.556 173.849 288.775 173.679 289.055C173.508 289.332 173.423 289.648 173.423 290.004V295H171.83ZM178.843 298.068C178.605 298.068 178.388 298.049 178.193 298.01C177.998 297.974 177.852 297.935 177.756 297.892L178.14 296.587C178.431 296.665 178.69 296.699 178.918 296.689C179.145 296.678 179.346 296.593 179.52 296.433C179.697 296.273 179.853 296.012 179.988 295.65L180.185 295.107L177.192 286.818H178.896L180.968 293.168H181.054L183.126 286.818H184.836L181.464 296.092C181.308 296.518 181.109 296.879 180.867 297.173C180.626 297.472 180.338 297.695 180.004 297.844C179.67 297.994 179.283 298.068 178.843 298.068ZM190.152 286.818V288.097H185.683V286.818H190.152ZM186.881 284.858H188.474V292.598C188.474 292.907 188.52 293.139 188.612 293.295C188.705 293.448 188.824 293.553 188.969 293.61C189.118 293.663 189.28 293.69 189.454 293.69C189.582 293.69 189.694 293.681 189.789 293.663C189.885 293.645 189.96 293.631 190.013 293.62L190.301 294.936C190.208 294.972 190.077 295.007 189.907 295.043C189.736 295.082 189.523 295.103 189.267 295.107C188.848 295.114 188.458 295.039 188.096 294.883C187.733 294.727 187.44 294.485 187.217 294.158C186.993 293.832 186.881 293.422 186.881 292.928V284.858ZM193.682 290.142V295H192.089V284.091H193.661V288.15H193.762C193.954 287.71 194.247 287.36 194.641 287.1C195.035 286.841 195.55 286.712 196.185 286.712C196.747 286.712 197.237 286.827 197.656 287.058C198.078 287.289 198.405 287.633 198.636 288.091C198.87 288.546 198.987 289.114 198.987 289.796V295H197.395V289.988C197.395 289.387 197.24 288.922 196.931 288.592C196.622 288.258 196.193 288.091 195.642 288.091C195.266 288.091 194.928 288.171 194.63 288.331C194.335 288.491 194.103 288.725 193.932 289.034C193.765 289.339 193.682 289.709 193.682 290.142ZM201.113 295V286.818H202.705V295H201.113ZM201.917 285.556C201.64 285.556 201.402 285.463 201.203 285.279C201.008 285.091 200.91 284.867 200.91 284.608C200.91 284.345 201.008 284.121 201.203 283.936C201.402 283.748 201.64 283.654 201.917 283.654C202.194 283.654 202.43 283.748 202.625 283.936C202.824 284.121 202.924 284.345 202.924 284.608C202.924 284.867 202.824 285.091 202.625 285.279C202.43 285.463 202.194 285.556 201.917 285.556ZM206.441 290.142V295H204.848V286.818H206.377V288.15H206.478C206.666 287.717 206.961 287.369 207.362 287.106C207.767 286.843 208.277 286.712 208.891 286.712C209.449 286.712 209.937 286.829 210.356 287.063C210.775 287.294 211.1 287.638 211.331 288.097C211.561 288.555 211.677 289.121 211.677 289.796V295H210.084V289.988C210.084 289.395 209.93 288.931 209.621 288.597C209.312 288.26 208.887 288.091 208.348 288.091C207.978 288.091 207.65 288.171 207.362 288.331C207.078 288.491 206.853 288.725 206.686 289.034C206.522 289.339 206.441 289.709 206.441 290.142ZM217.243 298.239C216.593 298.239 216.034 298.153 215.565 297.983C215.1 297.813 214.72 297.587 214.425 297.306C214.131 297.026 213.911 296.719 213.765 296.385L215.134 295.82C215.23 295.977 215.358 296.142 215.517 296.316C215.681 296.493 215.901 296.644 216.178 296.768C216.458 296.893 216.819 296.955 217.259 296.955C217.863 296.955 218.362 296.808 218.756 296.513C219.15 296.222 219.347 295.756 219.347 295.117V293.509H219.246C219.15 293.683 219.012 293.876 218.831 294.089C218.653 294.302 218.408 294.487 218.096 294.643C217.783 294.799 217.376 294.877 216.876 294.877C216.229 294.877 215.647 294.727 215.129 294.425C214.614 294.119 214.205 293.67 213.903 293.077C213.605 292.48 213.456 291.747 213.456 290.877C213.456 290.007 213.603 289.261 213.898 288.64C214.196 288.018 214.605 287.543 215.123 287.212C215.642 286.879 216.229 286.712 216.886 286.712C217.394 286.712 217.804 286.797 218.117 286.967C218.429 287.134 218.673 287.33 218.847 287.553C219.024 287.777 219.161 287.974 219.257 288.145H219.374V286.818H220.935V295.181C220.935 295.884 220.771 296.461 220.445 296.912C220.118 297.363 219.676 297.697 219.118 297.914C218.564 298.13 217.939 298.239 217.243 298.239ZM217.227 293.556C217.685 293.556 218.072 293.45 218.388 293.237C218.708 293.02 218.95 292.711 219.113 292.31C219.28 291.905 219.363 291.42 219.363 290.856C219.363 290.305 219.282 289.821 219.118 289.402C218.955 288.983 218.715 288.656 218.399 288.422C218.083 288.184 217.692 288.065 217.227 288.065C216.748 288.065 216.348 288.189 216.029 288.438C215.709 288.683 215.468 289.016 215.304 289.439C215.145 289.862 215.065 290.334 215.065 290.856C215.065 291.392 215.146 291.863 215.31 292.267C215.473 292.672 215.714 292.988 216.034 293.216C216.357 293.443 216.755 293.556 217.227 293.556ZM50.8445 313L48.4368 304.818H50.0827L51.6861 310.827H51.766L53.3746 304.818H55.0206L56.6186 310.8H56.6985L58.2912 304.818H59.9371L57.5348 313H55.9102L54.2482 307.093H54.1257L52.4638 313H50.8445ZM61.4486 313V304.818H63.0413V313H61.4486ZM62.2529 303.556C61.9759 303.556 61.738 303.463 61.5392 303.279C61.3438 303.091 61.2462 302.867 61.2462 302.608C61.2462 302.345 61.3438 302.121 61.5392 301.936C61.738 301.748 61.9759 301.654 62.2529 301.654C62.5299 301.654 62.7661 301.748 62.9614 301.936C63.1602 302.121 63.2597 302.345 63.2597 302.608C63.2597 302.867 63.1602 303.091 62.9614 303.279C62.7661 303.463 62.5299 303.556 62.2529 303.556ZM66.7766 302.091V313H65.1839V302.091H66.7766ZM70.512 302.091V313H68.9193V302.091H70.512ZM76.7522 313V302.091H78.3449V306.145H78.4408C78.5331 305.974 78.6663 305.777 78.8403 305.553C79.0143 305.33 79.2558 305.134 79.5647 304.967C79.8737 304.797 80.282 304.712 80.7899 304.712C81.4504 304.712 82.0399 304.879 82.5583 305.212C83.0768 305.546 83.4834 306.027 83.7781 306.656C84.0764 307.284 84.2256 308.041 84.2256 308.925C84.2256 309.809 84.0782 310.567 83.7835 311.2C83.4887 311.828 83.0839 312.313 82.569 312.654C82.0541 312.991 81.4664 313.16 80.8058 313.16C80.3087 313.16 79.9021 313.076 79.586 312.909C79.2735 312.743 79.0285 312.547 78.8509 312.324C78.6734 312.1 78.5367 311.901 78.4408 311.727H78.3076V313H76.7522ZM78.3129 308.909C78.3129 309.484 78.3964 309.989 78.5633 310.422C78.7302 310.855 78.9717 311.194 79.2877 311.439C79.6038 311.681 79.9909 311.801 80.449 311.801C80.9248 311.801 81.3225 311.675 81.6421 311.423C81.9617 311.168 82.2032 310.821 82.3666 310.385C82.5335 309.948 82.6169 309.456 82.6169 308.909C82.6169 308.369 82.5352 307.885 82.3719 307.455C82.2121 307.025 81.9706 306.686 81.6475 306.438C81.3279 306.189 80.9284 306.065 80.449 306.065C79.9873 306.065 79.5967 306.184 79.2771 306.422C78.961 306.659 78.7213 306.991 78.558 307.418C78.3946 307.844 78.3129 308.341 78.3129 308.909ZM89.5403 313.165C88.7342 313.165 88.04 312.993 87.4576 312.648C86.8787 312.3 86.4313 311.812 86.1152 311.184C85.8027 310.551 85.6465 309.811 85.6465 308.962C85.6465 308.124 85.8027 307.386 86.1152 306.746C86.4313 306.107 86.8716 305.608 87.4363 305.25C88.0044 304.891 88.6685 304.712 89.4284 304.712C89.8901 304.712 90.3375 304.788 90.7708 304.941C91.204 305.093 91.5929 305.333 91.9373 305.66C92.2818 305.987 92.5534 306.411 92.7523 306.933C92.9512 307.451 93.0506 308.082 93.0506 308.824V309.388H86.5467V308.195H91.4899C91.4899 307.776 91.4047 307.405 91.2342 307.082C91.0637 306.755 90.824 306.498 90.5151 306.31C90.2097 306.121 89.851 306.027 89.4391 306.027C88.9917 306.027 88.601 306.137 88.2672 306.358C87.937 306.574 87.6813 306.858 87.5002 307.21C87.3226 307.558 87.2338 307.936 87.2338 308.344V309.277C87.2338 309.824 87.3297 310.289 87.5215 310.672C87.7168 311.056 87.9885 311.349 88.3365 311.551C88.6845 311.75 89.0911 311.849 89.5563 311.849C89.8581 311.849 90.1333 311.807 90.3819 311.722C90.6305 311.633 90.8453 311.501 91.0265 311.327C91.2076 311.153 91.3461 310.939 91.4419 310.683L92.9494 310.955C92.8287 311.398 92.612 311.787 92.2995 312.121C91.9906 312.451 91.6017 312.709 91.133 312.893C90.6678 313.075 90.1369 313.165 89.5403 313.165ZM102.681 304.818V306.097H98.0577V304.818H102.681ZM99.3255 313V303.87C99.3255 303.359 99.4373 302.934 99.661 302.597C99.8848 302.256 100.181 302.002 100.551 301.835C100.92 301.665 101.321 301.58 101.754 301.58C102.074 301.58 102.347 301.606 102.575 301.659C102.802 301.709 102.971 301.755 103.081 301.798L102.708 303.087C102.633 303.066 102.537 303.041 102.42 303.012C102.303 302.98 102.161 302.964 101.994 302.964C101.607 302.964 101.33 303.06 101.163 303.252C101 303.444 100.918 303.721 100.918 304.083V313H99.3255ZM104.325 313V304.818H105.917V313H104.325ZM105.129 303.556C104.852 303.556 104.614 303.463 104.415 303.279C104.22 303.091 104.122 302.867 104.122 302.608C104.122 302.345 104.22 302.121 104.415 301.936C104.614 301.748 104.852 301.654 105.129 301.654C105.406 301.654 105.642 301.748 105.837 301.936C106.036 302.121 106.136 302.345 106.136 302.608C106.136 302.867 106.036 303.091 105.837 303.279C105.642 303.463 105.406 303.556 105.129 303.556ZM109.653 308.142V313H108.06V304.818H109.589V306.15H109.69C109.878 305.717 110.173 305.369 110.574 305.106C110.979 304.843 111.489 304.712 112.103 304.712C112.66 304.712 113.149 304.829 113.568 305.063C113.987 305.294 114.312 305.638 114.543 306.097C114.773 306.555 114.889 307.121 114.889 307.796V313H113.296V307.988C113.296 307.395 113.142 306.931 112.833 306.597C112.524 306.26 112.099 306.091 111.56 306.091C111.19 306.091 110.862 306.171 110.574 306.331C110.29 306.491 110.065 306.725 109.898 307.034C109.734 307.339 109.653 307.709 109.653 308.142ZM120.551 313.165C119.745 313.165 119.051 312.993 118.468 312.648C117.889 312.3 117.442 311.812 117.126 311.184C116.813 310.551 116.657 309.811 116.657 308.962C116.657 308.124 116.813 307.386 117.126 306.746C117.442 306.107 117.882 305.608 118.447 305.25C119.015 304.891 119.679 304.712 120.439 304.712C120.901 304.712 121.348 304.788 121.782 304.941C122.215 305.093 122.604 305.333 122.948 305.66C123.293 305.987 123.564 306.411 123.763 306.933C123.962 307.451 124.061 308.082 124.061 308.824V309.388H117.557V308.195H122.501C122.501 307.776 122.415 307.405 122.245 307.082C122.074 306.755 121.835 306.498 121.526 306.31C121.22 306.121 120.862 306.027 120.45 306.027C120.002 306.027 119.612 306.137 119.278 306.358C118.948 306.574 118.692 306.858 118.511 307.21C118.333 307.558 118.245 307.936 118.245 308.344V309.277C118.245 309.824 118.34 310.289 118.532 310.672C118.728 311.056 118.999 311.349 119.347 311.551C119.695 311.75 120.102 311.849 120.567 311.849C120.869 311.849 121.144 311.807 121.393 311.722C121.641 311.633 121.856 311.501 122.037 311.327C122.218 311.153 122.357 310.939 122.453 310.683L123.96 310.955C123.839 311.398 123.623 311.787 123.31 312.121C123.001 312.451 122.612 312.709 122.144 312.893C121.679 313.075 121.148 313.165 120.551 313.165ZM126.878 313.101C126.587 313.101 126.336 312.998 126.127 312.792C125.917 312.583 125.812 312.331 125.812 312.036C125.812 311.745 125.917 311.496 126.127 311.29C126.336 311.081 126.587 310.976 126.878 310.976C127.169 310.976 127.419 311.081 127.629 311.29C127.838 311.496 127.943 311.745 127.943 312.036C127.943 312.231 127.893 312.411 127.794 312.574C127.698 312.734 127.57 312.862 127.411 312.957C127.251 313.053 127.073 313.101 126.878 313.101Z" fill="white"/>
</svg>
